<?xml version="1.0" standalone="no"?>
<!DOCTYPE svg PUBLIC "-//W3C//DTD SVG 20010904//EN"
 "http://www.w3.org/TR/2001/REC-SVG-20010904/DTD/svg10.dtd">
<svg version="1.0" xmlns="http://www.w3.org/2000/svg"
 width="1280.000000pt" height="929.000000pt" viewBox="0 0 1280.000000 929.000000"
 preserveAspectRatio="xMidYMid meet">
<g transform="translate(0.000000,929.000000) scale(0.100000,-0.100000)"
fill="#000000" stroke="none">
<path d="M5655 9280 c-66 -5 -244 -13 -395 -20 -1198 -49 -2586 -241 -3360
-465 -776 -224 -1119 -390 -1429 -690 -240 -233 -320 -396 -308 -629 6 -121
24 -194 77 -303 103 -216 290 -416 550 -585 154 -101 529 -288 800 -400 296
-122 692 -245 885 -274 43 -6 47 -5 42 10 -61 158 -66 381 -16 680 36 213 99
528 130 646 128 487 330 962 592 1397 71 118 181 285 207 316 13 15 420 83
725 122 882 111 2376 146 3365 80 1168 -79 2244 -281 3285 -616 558 -180 1075
-454 1357 -719 l95 -89 7 -63 c4 -35 23 -155 42 -268 59 -344 56 -509 -12
-659 -42 -95 -26 -95 68 -1 143 144 194 281 185 500 -10 229 -97 425 -263 593
-169 170 -684 477 -1064 632 -540 222 -1040 352 -2076 540 -817 148 -1420 211
-2429 256 -333 14 -911 19 -1060 9z"/>
<path d="M12427 7928 c183 -191 290 -482 263 -719 -24 -207 -89 -319 -345
-588 -47 -49 -85 -97 -85 -108 0 -24 -61 -83 -175 -168 -524 -391 -1194 -665
-2107 -860 -438 -93 -1126 -202 -1200 -190 -26 5 -38 3 -38 -5 0 -9 -13 -10
-46 -5 -35 5 -44 4 -39 -6 6 -9 -4 -10 -40 -5 -36 6 -45 5 -40 -5 6 -9 -4 -10
-44 -5 -39 5 -51 4 -45 -5 5 -9 -5 -10 -41 -5 -36 6 -45 5 -40 -5 6 -9 -2 -11
-32 -7 -22 3 -71 2 -109 -2 -38 -5 -114 -11 -168 -15 -54 -3 -102 -8 -107 -10
-4 -3 -47 -7 -96 -10 -48 -2 -151 -9 -228 -15 -509 -37 -1382 -51 -1885 -30
-1271 54 -2399 224 -3528 531 -638 174 -1053 351 -1467 625 -196 130 -337 245
-503 412 l-142 144 1 -38 c0 -22 3 -33 6 -26 10 25 22 11 28 -35 42 -308 137
-740 234 -1062 23 -74 39 -136 37 -139 -18 -17 -242 852 -247 955 0 10 -3 13
-6 5 -10 -26 89 -460 168 -737 154 -535 444 -1254 636 -1575 269 -450 583
-843 1001 -1251 255 -250 493 -453 590 -503 79 -42 186 -133 198 -168 5 -16 8
-18 15 -7 6 10 12 3 24 -25 17 -40 17 -111 0 -111 -5 0 -35 -25 -65 -55 -31
-30 -43 -44 -28 -31 15 14 30 22 33 20 2 -3 -7 -27 -20 -54 -28 -55 -34 -95
-11 -76 7 6 26 39 41 72 14 33 34 62 43 65 10 3 34 14 54 24 20 11 56 20 80
20 85 -1 165 -46 448 -253 174 -128 314 -202 420 -221 41 -8 120 -31 175 -51
1088 -398 2329 -529 3465 -364 156 23 385 63 474 84 77 18 79 18 72 -1 -5 -13
-2 -14 11 -9 10 5 45 17 78 27 33 11 96 33 141 49 81 29 138 40 102 18 -10 -5
-75 -30 -145 -55 -70 -25 -165 -58 -210 -74 -130 -46 -418 -116 -407 -99 3 5
15 9 26 9 12 0 19 3 15 6 -3 3 -51 -4 -108 -15 -56 -12 -103 -21 -105 -21 -2
0 -4 -4 -4 -10 0 -27 324 3 535 50 384 84 819 275 1167 511 31 22 65 39 75 39
22 0 56 -21 101 -63 17 -17 32 -27 32 -22 0 4 9 0 20 -10 64 -58 66 -239 6
-420 -41 -122 -157 -354 -214 -430 -25 -33 -45 -50 -60 -50 -12 0 -29 -8 -38
-17 -15 -15 -12 -16 30 -13 32 2 85 23 178 69 159 78 279 156 407 263 52 43
98 77 102 76 12 -4 97 110 92 124 -2 6 10 36 26 65 17 30 40 80 50 111 11 32
27 64 36 73 8 8 15 30 15 47 0 44 -19 218 -26 240 -3 9 -1 17 4 17 30 0 56
-168 50 -324 -4 -98 -8 -121 -31 -169 -15 -30 -41 -64 -56 -74 -16 -10 -57
-54 -91 -98 -222 -281 -521 -503 -905 -670 -197 -86 -474 -176 -415 -134 12 8
11 9 -5 5 -672 -183 -1287 -272 -2090 -302 -174 -6 -612 8 -810 26 -692 64
-1353 221 -1885 447 -249 106 -676 341 -765 421 -21 17 -40 32 -43 32 -3 0
-49 33 -101 73 -53 41 -122 91 -153 111 -46 31 -58 44 -61 70 l-4 31 -1 -35
c-2 -30 3 -39 30 -55 18 -10 130 -92 249 -181 297 -223 481 -339 757 -478 102
-51 548 -195 807 -260 594 -149 1167 -221 1860 -233 670 -11 1332 40 1771 138
555 123 850 217 1159 369 273 135 435 253 662 482 147 149 182 206 204 331 24
148 -6 300 -125 616 -42 111 -76 214 -76 229 0 23 14 36 92 87 608 397 1199
1009 1706 1763 425 632 653 1226 906 2362 30 135 54 260 54 278 -1 18 10 47
24 70 47 70 88 160 106 234 50 195 52 215 22 358 -49 243 -134 405 -289 553
-85 81 -135 108 -64 35z m-11958 -2413 c0 -5 -4 -3 -9 5 -5 8 -9 22 -9 30 0
16 17 -16 18 -35z m40 -120 c0 -5 -4 -3 -9 5 -5 8 -9 22 -9 30 0 16 17 -16 18
-35z m20 -60 c0 -5 -4 -3 -9 5 -5 8 -9 22 -9 30 0 16 17 -16 18 -35z m21 -55
c0 -13 -1 -13 -10 0 -5 8 -10 22 -10 30 0 13 1 13 10 0 5 -8 10 -22 10 -30z
m7397 -5076 c-3 -3 -12 -4 -19 -1 -8 3 -5 6 6 6 11 1 17 -2 13 -5z"/>
<path d="M152 6760 c0 -19 2 -27 5 -17 2 9 2 25 0 35 -3 9 -5 1 -5 -18z"/>
<path d="M162 6695 c0 -16 2 -22 5 -12 2 9 2 23 0 30 -3 6 -5 -1 -5 -18z"/>
<path d="M172 6635 c0 -16 2 -22 5 -12 2 9 2 23 0 30 -3 6 -5 -1 -5 -18z"/>
<path d="M182 6575 c0 -16 2 -22 5 -12 2 9 2 23 0 30 -3 6 -5 -1 -5 -18z"/>
<path d="M9098 5343 c7 -3 16 -2 19 1 4 3 -2 6 -13 5 -11 0 -14 -3 -6 -6z"/>
<path d="M8958 5323 c7 -3 16 -2 19 1 4 3 -2 6 -13 5 -11 0 -14 -3 -6 -6z"/>
<path d="M8818 5303 c7 -3 16 -2 19 1 4 3 -2 6 -13 5 -11 0 -14 -3 -6 -6z"/>
<path d="M2611 1834 c0 -11 3 -14 6 -6 3 7 2 16 -1 19 -3 4 -6 -2 -5 -13z"/>
<path d="M2601 1794 c0 -11 3 -14 6 -6 3 7 2 16 -1 19 -3 4 -6 -2 -5 -13z"/>
<path d="M2592 1740 c0 -14 2 -19 5 -12 2 6 2 18 0 25 -3 6 -5 1 -5 -13z"/>
<path d="M2582 1675 c0 -16 2 -22 5 -12 2 9 2 23 0 30 -3 6 -5 -1 -5 -18z"/>
<path d="M2573 1570 c0 -30 2 -43 4 -27 2 15 2 39 0 55 -2 15 -4 2 -4 -28z"/>
<path d="M2563 1395 c0 -27 2 -38 4 -22 2 15 2 37 0 50 -2 12 -4 0 -4 -28z"/>
<path d="M7758 1243 c7 -3 16 -2 19 1 4 3 -2 6 -13 5 -11 0 -14 -3 -6 -6z"/>
<path d="M7718 1233 c7 -3 16 -2 19 1 4 3 -2 6 -13 5 -11 0 -14 -3 -6 -6z"/>
<path d="M7678 1223 c7 -3 16 -2 19 1 4 3 -2 6 -13 5 -11 0 -14 -3 -6 -6z"/>
<path d="M7638 1213 c7 -3 16 -2 19 1 4 3 -2 6 -13 5 -11 0 -14 -3 -6 -6z"/>
</g>
</svg>
